/* XPM */
static char *_91cc8dd187948ff9350b4d7cc162faflr5Ms3pRcEWX9ivX[] = {
/* columns rows colors chars-per-pixel */
"15 15 5 1 ",
"  c None",
". c #181425",
"X c #404973",
"o c #686F99",
"O c #A3A7C2",
/* pixels */
"    .......    ",
"   .oOOOOOo.   ",
"  .oOOOOOOOo.  ",
" .oOOOOOOOOOo. ",
".oOOOOOOOOOOOo.",
".oOOOOOOOOOOOo.",
".XoOOOOOOOOOoX.",
".XXoOOOOOOOoXX.",
".XXXoOOOOOoXXX.",
".XXXXoooooXXXX.",
".XXXXoooooXXXX.",
" .XXXoooooXXX. ",
"  .XXoooooXX.  ",
"   .XoooooX.   ",
"    .......    "
};
